<?xml version="1.0" encoding="UTF-8"?>
<svg version="1.1" xmlns="http://www.w3.org/2000/svg" width="1536" height="1024">
<path d="M0 0 C506.88 0 1013.76 0 1536 0 C1536 337.92 1536 675.84 1536 1024 C1029.12 1024 522.24 1024 0 1024 C0 686.08 0 348.16 0 0 Z " fill="#010313" transform="translate(0,0)"/>
<path d="M0 0 C50.09710351 0 50.09710351 0 59.125 3.6875 C59.80095215 3.95296631 60.4769043 4.21843262 61.17333984 4.49194336 C66.80594198 6.77308672 72.01226941 9.5124106 77 13 C77.56976562 13.39832031 78.13953125 13.79664063 78.7265625 14.20703125 C88.27533257 21.52775497 94.39863002 33.46899604 97 45 C97.43868846 48.71962165 97.52475349 52.38182774 97.5 56.125 C97.49500488 57.12619873 97.49000977 58.12739746 97.48486328 59.15893555 C97.13481161 74.22926374 92.22960844 87.54788514 81.875 98.6875 C59.01984854 120.50027124 30.84723172 115 0 115 C0 77.05 0 39.1 0 0 Z " fill="#BCC6D4" transform="translate(748,418)"/>
<path d="M0 0 C2.39136077 1.89833127 4.73383022 3.82991437 7.03515625 5.8359375 C6.37515625 6.1659375 5.71515625 6.4959375 5.03515625 6.8359375 C2.890625 5.578125 2.890625 5.578125 0.22265625 3.7109375 C-16.46861776 -7.23451836 -35.62916391 -9.50513628 -54.95239258 -5.78100586 C-70.81322575 -2.17671264 -85.07547322 7.55767143 -94.2421875 20.921875 C-101.6736657 33.49303768 -103.69668333 46.49092056 -101.50390625 60.85546875 C-97.3294997 76.05521965 -87.50778227 87.17931578 -74.2734375 95.2421875 C-73.51160156 95.768125 -72.74976563 96.2940625 -71.96484375 96.8359375 C-71.96484375 97.4959375 -71.96484375 98.1559375 -71.96484375 98.8359375 C-70.54171875 99.238125 -70.54171875 99.238125 -69.08984375 99.6484375 C-65.17471705 100.76249794 -61.28431071 101.95309865 -57.39453125 103.15234375 C-43.62069325 107.02761971 -27.11190443 105.12520359 -13.96484375 99.8359375 C-13.12566406 99.56007813 -12.28648437 99.28421875 -11.421875 99 C9.71696171 91.67366232 23.85684089 72.48617745 36.03515625 54.8359375 C36.70289063 53.9078125 37.370625 52.9796875 38.05859375 52.0234375 C38.38085938 51.3015625 38.703125 50.5796875 39.03515625 49.8359375 C37.84292113 46.92857032 36.15023345 44.40418541 34.3828125 41.81640625 C33.59620239 40.66386353 33.59620239 40.66386353 32.79370117 39.48803711 C32.23400635 38.67471924 31.67431152 37.86140137 31.09765625 37.0234375 C30.52442627 36.18627197 29.95119629 35.34910645 29.3605957 34.48657227 C25.1368449 28.35039934 20.7899229 22.31634433 16.28735352 16.3815918 C13.03515625 12.04593814 13.03515625 12.04593814 13.03515625 9.8359375 C35.27713436 8.04505751 35.27713436 8.04505751 41.265625 11.93359375 C43.29965934 14.82021734 44.6807802 17.57888814 46.03515625 20.8359375 C47.13440924 22.72614724 48.2580239 24.60248625 49.41015625 26.4609375 C50.10238281 27.68683594 50.10238281 27.68683594 50.80859375 28.9375 C51.90046909 30.98049936 51.90046909 30.98049936 54.03515625 31.8359375 C54.28523437 31.1346875 54.5353125 30.4334375 54.79296875 29.7109375 C56.19188138 26.47320261 57.93537842 23.7571183 59.91015625 20.8359375 C60.92722656 19.32 60.92722656 19.32 61.96484375 17.7734375 C62.98964844 16.319375 62.98964844 16.319375 64.03515625 14.8359375 C64.52757812 13.89363281 65.02 12.95132812 65.52734375 11.98046875 C69.79714594 8.32918931 74.88567608 9.31986081 80.28515625 9.5234375 C81.41179687 9.54599609 82.5384375 9.56855469 83.69921875 9.59179688 C86.47920857 9.65069496 89.25650957 9.73289549 92.03515625 9.8359375 C88.13020941 16.18796459 84.03859236 22.28752794 79.59765625 28.2734375 C78.19362154 30.17950189 76.79113671 32.08669149 75.38964844 33.99462891 C74.50518914 35.19697066 73.61793838 36.39726535 72.72753906 37.59521484 C71.54066814 39.2035783 70.38087358 40.83181865 69.22265625 42.4609375 C68.55621094 43.38132812 67.88976562 44.30171875 67.203125 45.25 C65.77991121 47.73528513 65.77991121 47.73528513 66.49609375 50.18359375 C68.61408555 53.83363546 70.99567325 57.23440716 73.47265625 60.6484375 C74.5554702 62.16220085 75.63748202 63.67653824 76.71875 65.19140625 C77.26901855 65.9601709 77.81928711 66.72893555 78.38623047 67.52099609 C80.96800238 71.14556839 83.5074534 74.79852483 86.03515625 78.4609375 C86.47915771 79.09878174 86.92315918 79.73662598 87.38061523 80.39379883 C90.16307563 84.4302511 92.65495156 88.54936517 95.03515625 92.8359375 C74.12497262 95.8545321 74.12497262 95.8545321 67.63964844 91.06787109 C63.62814624 86.59350326 60.8102432 81.48155084 58.18115234 76.10449219 C57.14592934 74.05521819 56.021504 72.22415287 54.7109375 70.34375 C53.03515625 67.8359375 53.03515625 67.8359375 53.03515625 65.8359375 C50.1310942 68.56917237 47.64834156 71.28433392 45.32421875 74.52734375 C30.59877859 94.32864992 8.47011336 109.81192763 -15.96484375 114.8359375 C-30.48484438 116.38754707 -43.77419794 116.35692481 -57.96484375 112.8359375 C-59.29072031 112.56178885 -60.6175835 112.29237555 -61.9453125 112.02734375 C-80.81280883 108.08606306 -94.42177173 96.69579476 -104.96484375 80.8359375 C-105.83496094 79.65064453 -105.83496094 79.65064453 -106.72265625 78.44140625 C-113.68095618 68.30649113 -114.50614887 53.60330929 -112.6171875 41.6328125 C-112.15892079 39.67651429 -111.56236375 37.7542912 -110.96484375 35.8359375 C-110.78179688 35.15402344 -110.59875 34.47210938 -110.41015625 33.76953125 C-105.60828935 17.20012631 -93.85182306 4.93440056 -79.19140625 -3.48046875 C-54.65497153 -16.28337839 -22.97549397 -16.76999164 0 0 Z " fill="#CDE0F7" transform="translate(640.96484375,440.1640625)"/>
<path d="M0 0 C9.24 0 18.48 0 28 0 C28.82886719 2.25585938 29.65773438 4.51171875 30.51171875 6.8359375 C33.69686001 15.39039299 37.2036558 23.7956001 40.77770996 32.19351196 C42.54724441 36.35145869 44.30649044 40.51375627 46.06640625 44.67578125 C46.4097702 45.48716049 46.75313416 46.29853973 47.10690308 47.13450623 C50.22144479 54.50315589 53.26634448 61.89862935 56.26098633 69.31689453 C58.39771334 74.59586715 60.65620501 79.80961826 63 85 C66.1100559 78.52496558 68.77406988 72.07591379 70.91015625 65.21484375 C71.79305581 62.61044828 72.7454517 60.08782499 73.77246094 57.53930664 C74.12965714 56.65074478 74.48685333 55.76218292 74.85487366 54.84669495 C75.23276535 53.90728561 75.61065704 52.96787628 76 52 C76.75861501 50.10243667 77.51665705 48.2046442 78.27416992 46.30664062 C80.44589576 40.86849518 82.61863441 35.43075508 84.79174805 29.99316406 C85.72792387 27.65018632 86.66379263 25.30708586 87.59936523 22.96386719 C88.95476301 19.56933983 90.3112548 16.17525149 91.66796875 12.78125 C92.29761787 11.20325623 92.29761787 11.20325623 92.93998718 9.59338379 C93.32741592 8.62477417 93.71484467 7.65616455 94.11401367 6.65820312 C94.45502609 5.80456177 94.79603851 4.95092041 95.14738464 4.07141113 C96 2 96 2 97 0 C104.59 0 112.18 0 120 0 C119.12228563 4.38857187 117.85904939 8.19189238 116.19140625 12.30078125 C115.76788124 13.35838905 115.76788124 13.35838905 115.33580017 14.43736267 C114.41577941 16.73087719 113.48933801 19.02173288 112.5625 21.3125 C111.92427193 22.89867965 111.28625249 24.48494326 110.6484375 26.07128906 C106.21368806 37.08203596 101.68186349 48.05000019 97.08984375 58.99609375 C94.89948191 64.22316 92.79062935 69.47861548 90.69921875 74.74609375 C88.28843335 80.80141041 85.82951168 86.83731257 83.375 92.875 C82.90715088 94.02911377 82.43930176 95.18322754 81.95727539 96.37231445 C81.50473389 97.48437256 81.05219238 98.59643066 80.5859375 99.7421875 C80.1842334 100.7307373 79.7825293 101.71928711 79.36865234 102.73779297 C77.64240621 106.85233112 75.81218555 110.9225825 74 115 C65.75 115 57.5 115 49 115 C46.43706093 109.12519117 43.87456032 103.25019203 41.3125 97.375 C40.92795654 96.49331146 40.54341309 95.61162292 40.1472168 94.70321655 C36.18508654 85.61797268 32.22444868 76.53215174 28.29296875 67.43359375 C28.0122049 66.78385086 27.73144104 66.13410797 27.44216919 65.4646759 C26.89494707 64.19816574 26.3477361 62.93165077 25.80053711 61.66513062 C22.02930073 52.9376052 18.23331839 44.2240632 14.3125 35.5625 C10.98368427 28.20374011 7.68825824 20.83112242 4.4375 13.4375 C3.77391479 11.94488647 3.77391479 11.94488647 3.09692383 10.42211914 C2.6923999 9.49778076 2.28787598 8.57344238 1.87109375 7.62109375 C1.50943115 6.8005249 1.14776855 5.97995605 0.77514648 5.13452148 C0 3 0 3 0 0 Z " fill="#FAFAFB" transform="translate(418,418)"/>
<path d="M0 0 C6.93 0 13.86 0 21 0 C21.33 21.45 21.66 42.9 22 65 C28.89828991 57.39493441 28.89828991 57.39493441 35.4375 49.5625 C36.200625 48.66015625 36.96375 47.7578125 37.75 46.828125 C40.07078322 44.0401081 40.07078322 44.0401081 41.875 40.859375 C44.21927706 37.39623843 46.14053416 34.68413055 50 33 C58.57481488 31.64261311 67.38260016 32.32484759 76 33 C75.61473145 33.44585449 75.22946289 33.89170898 74.83251953 34.35107422 C71.78152338 37.89401393 68.79474837 41.47245203 65.875 45.125 C61.85082974 50.06995498 57.61393745 54.76589683 53.24951172 59.40869141 C50.03099132 62.8392555 46.981183 66.36056309 44 70 C45.62488138 73.80349328 48.13341705 76.71805535 50.8125 79.8125 C51.29170898 80.37291992 51.77091797 80.93333984 52.26464844 81.51074219 C54.95047734 84.64507174 57.65915498 87.7593529 60.37109375 90.87109375 C77 109.95458366 77 109.95458366 77 112 C72.83454875 112.26326588 68.6712488 112.42182084 64.5 112.5625 C63.32695313 112.63791016 62.15390625 112.71332031 60.9453125 112.79101562 C52.38437291 113.00744387 52.38437291 113.00744387 48.59960938 110.25317383 C46.51677428 107.94143655 44.75271447 105.56936549 43 103 C41.89108035 101.58019364 40.77671355 100.16462037 39.65625 98.75390625 C38.60045076 97.35957678 37.54833096 95.96245318 36.5 94.5625 C31.77098975 88.28270459 26.91485479 82.14356849 22 76 C21.67 87.88 21.34 99.76 21 112 C14.07 112 7.14 112 0 112 C0 75.04 0 38.08 0 0 Z " fill="#B2BDCE" transform="translate(1025,421)"/>
<path d="M0 0 C6.93 0 13.86 0 21 0 C21.01458252 1.54381348 21.02916504 3.08762695 21.04418945 4.67822266 C21.1022319 10.41478449 21.17946538 16.15095626 21.26245117 21.88720703 C21.29567236 24.36826235 21.32371298 26.84939273 21.34643555 29.33056641 C21.3800322 32.90039001 21.43235283 36.46952745 21.48828125 40.0390625 C21.49467117 41.14553131 21.5010611 42.25200012 21.50764465 43.39199829 C21.63996676 50.34848558 22.33831253 55.02517283 27.125 60.375 C31.17478671 62.66400988 34.45146703 62.63195741 39 62 C43.48859763 60.67549578 45.4608423 59.68104131 48.375 56 C50.45909469 52.15244057 51.12934838 49.37838483 51.20532227 45.06958008 C51.22526749 44.06876907 51.24521271 43.06795807 51.26576233 42.03681946 C51.29083107 40.4195118 51.29083107 40.4195118 51.31640625 38.76953125 C51.33718735 37.66397385 51.35796844 36.55841644 51.37937927 35.4193573 C51.44482332 31.8838021 51.50373603 28.34817194 51.5625 24.8125 C51.6056901 22.41730992 51.64930454 20.02212745 51.69335938 17.62695312 C51.80049952 11.75137912 51.90178168 5.87572964 52 0 C58.93 0 65.86 0 73 0 C73 26.4 73 52.8 73 80 C66.07 80 59.14 80 52 80 C51.505 76.04 51.505 76.04 51 72 C50.50371094 72.47050781 50.00742187 72.94101562 49.49609375 73.42578125 C41.24140237 80.99127639 35.8100547 82.54637075 24.59765625 82.28125 C16.86671894 81.67687705 11.24070705 78.70743669 6 73 C1.76628605 67.14402183 -0.25739389 61.00235077 -0.22705078 53.81103516 C-0.22689972 52.61024323 -0.22674866 51.40945129 -0.22659302 50.17227173 C-0.21627045 48.89081268 -0.20594788 47.60935364 -0.1953125 46.2890625 C-0.1915779 44.95242526 -0.18873304 43.61578526 -0.18673706 42.27914429 C-0.17913577 38.77744868 -0.15951788 35.2759215 -0.1373291 31.77429199 C-0.11679474 28.19460325 -0.10771918 24.61488704 -0.09765625 21.03515625 C-0.07626827 14.02336174 -0.0411151 7.01170632 0 0 Z " fill="#B6C0D0" transform="translate(857,453)"/>
<path d="M0 0 C33.61458333 0 33.61458333 0 45.75 11.25 C54.27013958 20.30512509 55.47630467 29.47073752 55.2734375 41.4375 C54.87222589 51.11424739 50.90895478 59.23608053 44 66 C30.28502535 76.37705864 17.81044969 75 0 75 C0 50.25 0 25.5 0 0 Z " fill="#0D1834" transform="translate(769,438)"/>
<path d="M0 0 C1.02558537 0.9737426 2.03604428 1.96521047 3 3 C1.41043716 6.81316478 -1.00760697 9.372784 -3.875 12.3125 C-4.73867188 13.21613281 -5.60234375 14.11976563 -6.4921875 15.05078125 C-9 17 -9 17 -11.01953125 16.953125 C-13.32419577 15.84397679 -15.57371166 14.67500348 -17.8125 13.4375 C-23.87905683 10.37761388 -28.16473537 10.33427079 -34.625 12.25 C-40.47461724 14.3951907 -44.26900404 17.30914713 -47.203125 22.9609375 C-50.00651917 30.13432846 -49.23883494 36.48140173 -46.375 43.51171875 C-43.61754922 48.50176463 -39.25796965 51.8778645 -34 54 C-25.36318289 55.0983904 -19.0728099 54.05200707 -12 49 C-11.01 48.34 -10.02 47.68 -9 47 C-4.71 51.29 -0.42 55.58 4 60 C1.84427377 64.31145246 0.66655656 65.18049164 -3.3125 67.625 C-4.72982422 68.51058594 -4.72982422 68.51058594 -6.17578125 69.4140625 C-16.71861263 75.33437999 -30.86353345 75.83092826 -42.55859375 73.19921875 C-53.32415803 69.12538363 -62.76189698 60.24846242 -68 50 C-72.66242829 38.98554785 -72.50735542 26.7615777 -68.26171875 15.6484375 C-66.33434326 11.6027391 -63.98628714 8.32449315 -61 5 C-60.21302734 4.07574219 -60.21302734 4.07574219 -59.41015625 3.1328125 C-44.29884896 -13.43629149 -17.23528935 -12.55854101 0 0 Z " fill="#B5BFCF" transform="translate(1011,461)"/>
<path d="M0 0 C4.50413827 1.25114952 4.50413827 1.25114952 6.375 3.9375 C6.73576355 7.06962585 6.73576355 7.06962585 6.71557617 10.97924805 C6.71601425 11.69169678 6.71645233 12.40414551 6.71690369 13.13818359 C6.7148143 15.49214115 6.69147715 17.84538569 6.66796875 20.19921875 C6.6623733 21.83160513 6.65810296 23.46399655 6.65510559 25.09638977 C6.6436527 29.39224158 6.61418187 33.68778896 6.58099365 37.98352051 C6.55030224 42.36722699 6.53660225 46.75098267 6.52148438 51.13476562 C6.48931245 59.73581677 6.43811093 68.33662051 6.375 76.9375 C5.715 76.9375 5.055 76.9375 4.375 76.9375 C3.715 78.2575 3.055 79.5775 2.375 80.9375 C-3.94453047 81.42361773 -3.94453047 81.42361773 -6.82603455 79.3651123 C-9.26290998 76.07667295 -9.13865707 73.91923589 -9.15844727 69.84570312 C-9.16706284 69.13953354 -9.17567841 68.43336395 -9.18455505 67.70579529 C-9.20721944 65.37640514 -9.20047662 63.04821752 -9.19140625 60.71875 C-9.19664142 59.09736778 -9.2029175 57.47598862 -9.21018982 55.85461426 C-9.22059462 52.45843156 -9.21603133 49.06266785 -9.20141602 45.66650391 C-9.1842212 41.31479074 -9.20773018 36.96439705 -9.24290562 32.61283112 C-9.26486757 29.26531225 -9.26344131 25.91810977 -9.2551403 22.57054138 C-9.25432024 20.96616671 -9.26119435 19.36176893 -9.27591133 17.75746155 C-9.29333832 15.513915 -9.27883541 13.27274773 -9.25610352 11.02929688 C-9.25514175 9.75340698 -9.25417999 8.47751709 -9.25318909 7.16296387 C-8.625 3.9375 -8.625 3.9375 -6.31211853 1.49035645 C-3.625 -0.0625 -3.625 -0.0625 0 0 Z " fill="#8EB4EE" transform="translate(599.625,448.0625)"/>
<path d="M0 0 C1.0209375 -0.01160156 1.0209375 -0.01160156 2.0625 -0.0234375 C4.59909506 0.498201 5.3868371 1.37042733 7 3.375 C7.38768005 5.3792572 7.38768005 5.3792572 7.40405273 7.69116211 C7.41673691 8.55893784 7.42942108 9.42671356 7.44248962 10.32078552 C7.43955399 11.25519974 7.43661835 12.18961395 7.43359375 13.15234375 C7.4388356 14.11523819 7.44407745 15.07813263 7.44947815 16.07020569 C7.45590251 18.10693396 7.45455601 20.14369931 7.44604492 22.18041992 C7.43754124 25.29738471 7.46628065 28.41251352 7.49804688 31.52929688 C7.49965911 33.50781195 7.49908093 35.48633027 7.49609375 37.46484375 C7.51294472 38.86342873 7.51294472 38.86342873 7.53013611 40.29026794 C7.46091971 46.71632103 7.46091971 46.71632103 5.19165039 49.95922852 C1.94633786 52.05564907 -0.23457513 51.99116043 -4 51.375 C-7.869956 46.97056293 -7.43562556 42.13016473 -7.3984375 36.5859375 C-7.40130768 35.64569733 -7.40417786 34.70545715 -7.40713501 33.73672485 C-7.40917179 31.75481563 -7.40366899 29.77288613 -7.39111328 27.79101562 C-7.37501829 24.75345161 -7.39099361 21.71721092 -7.41015625 18.6796875 C-7.40817445 16.75260123 -7.4043321 14.82551578 -7.3984375 12.8984375 C-7.40451019 11.98903412 -7.41058289 11.07963074 -7.4168396 10.14266968 C-7.40738312 9.2981424 -7.39792664 8.45361511 -7.38818359 7.58349609 C-7.38579681 6.84134857 -7.38341003 6.09920105 -7.38095093 5.33456421 C-6.57905891 1.20973137 -3.94115822 -0.04478589 0 0 Z " fill="#8558F8" transform="translate(619,463.625)"/>
<path d="M0 0 C1.0209375 -0.01160156 1.0209375 -0.01160156 2.0625 -0.0234375 C4.5990505 0.49819184 5.38617497 1.37102005 7 3.375 C7.39440918 5.3792572 7.39440918 5.3792572 7.41992188 7.69116211 C7.43583374 8.55893784 7.45174561 9.42671356 7.46813965 10.32078552 C7.46834106 11.25519974 7.46854248 12.18961395 7.46875 13.15234375 C7.47636353 14.11523819 7.48397705 15.07813263 7.49182129 16.07020569 C7.50262815 18.10691738 7.50547302 20.14368452 7.50097656 22.18041992 C7.50000463 25.2976522 7.54161122 28.41242042 7.5859375 31.52929688 C7.59114471 33.50780736 7.59383269 35.48632641 7.59375 37.46484375 C7.61014526 38.39723373 7.62654053 39.32962372 7.64343262 40.29026794 C7.57440831 46.75050205 7.57440831 46.75050205 4.62304688 49.95922852 C1.65819502 51.55948688 0.29478355 52.13533467 -3 51.375 C-6.22689704 48.44928992 -7.26408786 46.14631777 -7.50170898 41.90771484 C-7.52126645 40.13389589 -7.51810359 38.35972772 -7.49609375 36.5859375 C-7.49754898 35.64569733 -7.49900421 34.70545715 -7.50050354 33.73672485 C-7.49884735 31.75479016 -7.48731749 29.77284223 -7.46655273 27.79101562 C-7.43753204 24.75335327 -7.44596267 21.71742962 -7.45898438 18.6796875 C-7.45274871 16.75259567 -7.44435911 14.82550935 -7.43359375 12.8984375 C-7.43652939 11.98903412 -7.43946503 11.07963074 -7.44248962 10.14266968 C-7.42980545 9.2981424 -7.41712128 8.45361511 -7.40405273 7.58349609 C-7.39864975 6.84134857 -7.39324677 6.09920105 -7.38768005 5.33456421 C-6.57222752 1.21278498 -3.94480634 -0.04482734 0 0 Z " fill="#72CEED" transform="translate(578,463.625)"/>
<path d="M0 0 C2.39136077 1.89833127 4.73383022 3.82991437 7.03515625 5.8359375 C6.37515625 6.1659375 5.71515625 6.4959375 5.03515625 6.8359375 C2.890625 5.578125 2.890625 5.578125 0.22265625 3.7109375 C-16.46861776 -7.23451836 -35.62916391 -9.50513628 -54.95239258 -5.78100586 C-67.70460973 -2.88312973 -78.42213793 4.10193557 -87.96484375 12.8359375 C-88.62484375 11.5159375 -89.28484375 10.1959375 -89.96484375 8.8359375 C-92.84922154 10.12893444 -94.83703796 11.49535113 -96.96484375 13.8359375 C-97.62484375 13.5059375 -98.28484375 13.1759375 -98.96484375 12.8359375 C-74.28717256 -14.34849487 -30.79632026 -22.47847355 0 0 Z " fill="#C8E9F1" transform="translate(640.96484375,440.1640625)"/>
<path d="M0 0 C1.0209375 -0.01160156 1.0209375 -0.01160156 2.0625 -0.0234375 C4.58747025 0.49581042 5.38067409 1.39491786 7 3.375 C7.3248229 6.30133247 7.46433068 8.95289521 7.4375 11.875 C7.45748047 12.64714844 7.47746094 13.41929687 7.49804688 14.21484375 C7.49318426 19.82630583 7.49318426 19.82630583 5.1953125 22.3828125 C1.98126062 23.83542669 -0.52351923 23.75425245 -4 23.375 C-5.68994141 22.09570312 -5.68994141 22.09570312 -7 20.375 C-7.2981028 17.45242357 -7.41882117 14.79154217 -7.375 11.875 C-7.38660156 11.10285156 -7.39820313 10.33070313 -7.41015625 9.53515625 C-7.38055089 3.84105902 -7.38055089 3.84105902 -5.59619141 1.65576172 C-3.60838663 0.0607749 -2.52431126 -0.02868536 0 0 Z " fill="#B67CEE" transform="translate(639,477.625)"/>
<path d="M0 0 C2.1875 1.02734375 2.1875 1.02734375 4 3 C4.43611131 5.81216604 4.60519131 8.13242976 4.5625 10.9375 C4.58634766 11.65357422 4.61019531 12.36964844 4.63476562 13.10742188 C4.62401844 16.9728276 4.33723428 18.64889918 1.625 21.47265625 C-1.32948059 23.19170671 -2.65497492 23.68615899 -6 23 C-8.125 21.47265625 -8.125 21.47265625 -10 19 C-10.37307106 16.15349716 -10.51645498 13.76714443 -10.4375 10.9375 C-10.44458984 10.21755859 -10.45167969 9.49761719 -10.45898438 8.75585938 C-10.42292209 5.76823765 -10.36886788 3.55439964 -8.6875 1.02734375 C-5.79625749 -0.73283398 -3.28073163 -0.34534017 0 0 Z " fill="#87EFEB" transform="translate(561,478)"/>
<path d="M0 0 C2.1003418 -0.40405273 2.1003418 -0.40405273 4.69921875 -0.43359375 C5.65401123 -0.44503418 6.60880371 -0.45647461 7.5925293 -0.46826172 C8.61386963 -0.45811035 9.63520996 -0.44795898 10.6875 -0.4375 C12.2494812 -0.42614014 12.2494812 -0.42614014 13.84301758 -0.41455078 C31.77800124 -0.03451942 46.50475349 6.23644442 60 18 C59.01 18.495 59.01 18.495 58 19 C55.85546875 17.7421875 55.85546875 17.7421875 53.1875 15.875 C36.5434557 4.96051545 18.30654085 3.24192274 -1 6 C-1.33 5.01 -1.66 4.02 -2 3 C-1.34 2.01 -0.68 1.02 0 0 Z " fill="#CFC8E9" transform="translate(588,428)"/>
<path d="M0 0 C3 2 3 2 3.73046875 3.92578125 C6.16414551 16.63498213 5.82004975 25.73473926 -1 37 C-2 35 -2 35 -1.44140625 33.28515625 C-1.15136719 32.55167969 -0.86132812 31.81820313 -0.5625 31.0625 C1.14084983 25.75022633 1.27592899 20.77393231 1.25 15.25 C1.24669678 14.434104 1.24339355 13.61820801 1.23999023 12.77758789 C1.17271623 8.42170762 0.85737668 4.28688339 0 0 Z " fill="#C0AAC4" transform="translate(660,473)"/>
<path d="M0 0 C0.66 0 1.32 0 2 0 C2.79973053 7.76353791 3.09871121 15.28058572 2.625 23.0625 C2.58189697 23.77591553 2.53879395 24.48933105 2.49438477 25.22436523 C2.24055528 28.88688613 1.82324252 32.42098805 1 36 C0.67 36 0.34 36 0 36 C0 24.12 0 12.24 0 0 Z " fill="#AAEEFB" transform="translate(592,453)"/>
<path d="M0 0 C0.33 0 0.66 0 1 0 C1 13.86 1 27.72 1 42 C1.99 42.33 2.98 42.66 4 43 C4 43.99 4 44.98 4 46 C5.98 46.33 7.96 46.66 10 47 C10 47.33 10 47.66 10 48 C6.6875 48.3125 6.6875 48.3125 3 48 C-0.9450912 43.61950304 -0.38690111 38.65487052 -0.29296875 33.10546875 C-0.28872391 32.15811356 -0.28447906 31.21075836 -0.28010559 30.23469543 C-0.26335689 27.21867053 -0.22571146 24.20332184 -0.1875 21.1875 C-0.17244825 19.13868155 -0.1587607 17.08985259 -0.14648438 15.04101562 C-0.11346579 10.0270845 -0.06170947 5.01365678 0 0 Z " fill="#554DB6" transform="translate(612,467)"/>
<path d="M0 0 C8.25 0 16.5 0 25 0 C24.67 0.99 24.34 1.98 24 3 C20.5625177 3.02901394 17.12506688 3.04680335 13.6875 3.0625 C12.22280273 3.07506836 12.22280273 3.07506836 10.72851562 3.08789062 C9.79072266 3.09111328 8.85292969 3.09433594 7.88671875 3.09765625 C7.02264404 3.10289307 6.15856934 3.10812988 5.26831055 3.11352539 C3 3 3 3 0 2 C0 1.34 0 0.68 0 0 Z " fill="#303A52" transform="translate(711,533)"/>
<path d="M0 0 C2.33837891 -0.34057617 2.33837891 -0.34057617 5.2265625 -0.29296875 C6.7734375 -0.2784668 6.7734375 -0.2784668 8.3515625 -0.26367188 C9.43179688 -0.23853516 10.51203125 -0.21339844 11.625 -0.1875 C12.71296875 -0.17396484 13.8009375 -0.16042969 14.921875 -0.14648438 C17.61507409 -0.11104754 20.30729374 -0.06164331 23 0 C23 0.33 23 0.66 23 1 C21.85660156 1.06058594 20.71320312 1.12117188 19.53515625 1.18359375 C18.04425695 1.26798428 16.55337225 1.35263302 15.0625 1.4375 C13.93038086 1.49647461 13.93038086 1.49647461 12.77539062 1.55664062 C9.08055813 1.44038024 9.08055813 1.44038024 6 3 C6.66 3.66 7.32 4.32 8 5 C3.545 5.495 3.545 5.495 -1 6 C-1.33 5.01 -1.66 4.02 -2 3 C-1.34 2.01 -0.68 1.02 0 0 Z " fill="#BDC0E0" transform="translate(588,428)"/>
<path d="M0 0 C3.04407081 1.10354231 5.31708857 2.82581773 7.91796875 4.74609375 C8.89121094 5.45636719 9.86445312 6.16664063 10.8671875 6.8984375 C13.23046875 8.80859375 13.23046875 8.80859375 14.23046875 10.80859375 C10.60677098 9.45782469 7.40276319 7.8252876 4.10546875 5.80859375 C3.25726562 5.29296875 2.4090625 4.77734375 1.53515625 4.24609375 C-0.25262085 3.13100566 -2.0163777 1.97736278 -3.76953125 0.80859375 C-1.76953125 -0.19140625 -1.76953125 -0.19140625 0 0 Z " fill="#CDC7D9" transform="translate(633.76953125,436.19140625)"/>
<path d="M0 0 C1.48831242 0.00667405 2.97660807 0.01863442 4.46484375 0.03515625 C5.22345703 0.03966797 5.98207031 0.04417969 6.76367188 0.04882812 C8.64326246 0.06064945 10.52281274 0.07858547 12.40234375 0.09765625 C12.07234375 0.75765625 11.74234375 1.41765625 11.40234375 2.09765625 C4.80234375 2.42765625 -1.79765625 2.75765625 -8.59765625 3.09765625 C-7.27765625 2.43765625 -5.95765625 1.77765625 -4.59765625 1.09765625 C-3.59765625 0.09765625 -3.59765625 0.09765625 0 0 Z " fill="#DAD7F9" transform="translate(598.59765625,428.90234375)"/>
<path d="M0 0 C0.33 0 0.66 0 1 0 C1 4.95 1 9.9 1 15 C2.32 15.66 3.64 16.32 5 17 C5 17.66 5 18.32 5 19 C6.65 19 8.3 19 10 19 C10 19.33 10 19.66 10 20 C3.49959631 20.36794738 3.49959631 20.36794738 1.2878418 18.73901367 C-0.27556408 16.62789707 -0.35164149 15.58943959 -0.29296875 12.98828125 C-0.28330078 12.23095703 -0.27363281 11.47363281 -0.26367188 10.69335938 C-0.23853516 9.90767578 -0.21339844 9.12199219 -0.1875 8.3125 C-0.17396484 7.51521484 -0.16042969 6.71792969 -0.14648438 5.89648438 C-0.11117089 3.93070033 -0.05736447 1.96526418 0 0 Z " fill="#5B4499" transform="translate(632,481)"/>
<path d="M0 0 C2.01822917 0.06510417 4.03645833 0.13020833 6.0546875 0.1953125 C6.0546875 1.1853125 6.0546875 2.1753125 6.0546875 3.1953125 C5.7246875 2.8653125 5.3946875 2.5353125 5.0546875 2.1953125 C2.59658752 1.9452352 2.59658752 1.9452352 0.0546875 2.1953125 C-2.71573359 4.96573359 -2.34327356 6.96065055 -2.5703125 10.8203125 C-2.64507813 12.00882812 -2.71984375 13.19734375 -2.796875 14.421875 C-2.84585938 15.33710938 -2.89484375 16.25234375 -2.9453125 17.1953125 C-3.2753125 17.1953125 -3.6053125 17.1953125 -3.9453125 17.1953125 C-3.99915098 14.73668849 -4.03890288 12.279237 -4.0703125 9.8203125 C-4.08707031 9.12164062 -4.10382812 8.42296875 -4.12109375 7.703125 C-4.13875517 5.86633764 -4.04834511 4.02929287 -3.9453125 2.1953125 C-1.9453125 0.1953125 -1.9453125 0.1953125 0 0 Z " fill="#92E9EF" transform="translate(575.9453125,463.8046875)"/>
<path d="M0 0 C-4.40998494 4.04248619 -9.68762895 4.91741532 -15.5 5.125 C-16.325 5.08375 -17.15 5.0425 -18 5 C-14.81886649 2.87924433 -12.07995044 1.93982824 -8.4375 0.8125 C-7.28121094 0.44769531 -6.12492188 0.08289063 -4.93359375 -0.29296875 C-2 -1 -2 -1 0 0 Z " fill="#8E94DB" transform="translate(629,541)"/>
<path d="M0 0 C0.33 0.66 0.66 1.32 1 2 C-3.95 2.33 -8.9 2.66 -14 3 C-8.22495078 -0.85003281 -6.72973798 -1.30252993 0 0 Z " fill="#1F263B" transform="translate(988,450)"/>
<path d="M0 0 C4.62 0 9.24 0 14 0 C13.67 0.66 13.34 1.32 13 2 C8.00152882 3.17611086 4.73279673 2.96237913 0 1 C0 0.67 0 0.34 0 0 Z " fill="#192037" transform="translate(976,535)"/>
<path d="M0 0 C2 2 2 2 3 5 C3.495 5.495 3.99 5.99 4.5 6.5 C6 8 6 8 7 11 C6.01 11 5.02 11 4 11 C0 4.5 0 4.5 0 0 Z " fill="#469EBC" transform="translate(530,507)"/>
<path d="M0 0 C0.66 0.33 1.32 0.66 2 1 C1.67 2.32 1.34 3.64 1 5 C-1.64 5.33 -4.28 5.66 -7 6 C-2.25 1.125 -2.25 1.125 0 0 Z " fill="#DCE5F8" transform="translate(586,429)"/>
<path d="M0 0 C0.99 0.33 1.98 0.66 3 1 C3 1.99 3 2.98 3 4 C5.97 4.495 5.97 4.495 9 5 C9 5.33 9 5.66 9 6 C5.625 6.1875 5.625 6.1875 2 6 C0 3 0 3 0 0 Z " fill="#4D3DC1" transform="translate(613,509)"/>
<path d="M0 0 C0.66 0.66 1.32 1.32 2 2 C1.67800066 5.97132519 0.16420003 8.70665213 -2 12 C-3.40907283 9.18185434 -2.50872691 7.82722796 -1.5625 4.875 C-1.27503906 3.96492188 -0.98757813 3.05484375 -0.69140625 2.1171875 C-0.46324219 1.41851562 -0.23507812 0.71984375 0 0 Z " fill="#AA9CB5" transform="translate(661,498)"/>
</svg>
